<svg width="800" height="600" viewBox="0 0 800 600" fill="none" xmlns="http://www.w3.org/2000/svg">
  <!-- Background elements -->
  <circle cx="400" cy="300" r="280" fill="white" fill-opacity="0.1"/>
  <circle cx="400" cy="300" r="200" fill="white" fill-opacity="0.2"/>
  
  <!-- Hands connecting/donating -->
  <path d="M250 300 C300 250, 350 250, 400 300" stroke="white" stroke-width="8" stroke-linecap="round"/>
  <path d="M400 300 C450 350, 500 350, 550 300" stroke="white" stroke-width="8" stroke-linecap="round"/>
  
  <!-- Donation box -->
  <rect x="340" y="330" width="120" height="80" rx="10" fill="white"/>
  <rect x="370" y="310" width="60" height="20" rx="5" fill="white"/>
  
  <!-- Heart symbol -->
  <path d="M400 280 C420 260, 450 270, 450 290 C450 310, 400 340, 400 340 C400 340, 350 310, 350 290 C350 270, 380 260, 400 280Z" fill="#FF6B6B"/>
  
  <!-- People silhouettes -->
  <circle cx="250" cy="240" r="30" fill="white"/>
  <rect x="225" y="270" width="50" height="80" rx="20" fill="white"/>
  
  <circle cx="550" cy="240" r="30" fill="white"/>
  <rect x="525" y="270" width="50" height="80" rx="20" fill="white"/>
  
  <!-- NGO building -->
  <rect x="440" y="380" width="120" height="100" fill="white"/>
  <rect x="470" y="430" width="30" height="50" fill="#3182CE"/>
  <rect x="450" y="390" width="20" height="20" rx="2" fill="#3182CE"/>
  <rect x="490" y="390" width="20" height="20" rx="2" fill="#3182CE"/>
  <rect x="530" y="390" width="20" height="20" rx="2" fill="#3182CE"/>
  
  <!-- Home/Community -->
  <path d="M200 430 L260 380 L320 430 L320 480 L200 480 Z" fill="white"/>
  <rect x="240" y="430" width="40" height="50" fill="#3182CE"/>
  <rect x="220" y="400" width="20" height="20" fill="#3182CE"/>
  <rect x="280" y="400" width="20" height="20" fill="#3182CE"/>
</svg> 